<svg xmlns="http://www.w3.org/2000/svg" width="1200" height="630" viewBox="0 0 1200 630" role="img" aria-label="Ari Radha social preview">
  <defs>
    <radialGradient id="bg1" cx="20%" cy="20%" r="60%">
      <stop offset="0%" stop-color="#71a8ff" stop-opacity="0.4"/>
      <stop offset="100%" stop-color="#07090f" stop-opacity="0"/>
    </radialGradient>
    <radialGradient id="bg2" cx="80%" cy="10%" r="60%">
      <stop offset="0%" stop-color="#4de2c5" stop-opacity="0.34"/>
      <stop offset="100%" stop-color="#07090f" stop-opacity="0"/>
    </radialGradient>
    <linearGradient id="txt" x1="0" y1="0" x2="1" y2="0">
      <stop offset="0%" stop-color="#eaf2ff"/>
      <stop offset="70%" stop-color="#85b3ff"/>
      <stop offset="100%" stop-color="#8ce8d8"/>
    </linearGradient>
  </defs>
  <rect width="1200" height="630" fill="#07090f"/>
  <rect width="1200" height="630" fill="url(#bg1)"/>
  <rect width="1200" height="630" fill="url(#bg2)"/>
  <g opacity="0.22" stroke="#c2d8ff" stroke-width="1">
    <path d="M0 80h1200M0 180h1200M0 280h1200M0 380h1200M0 480h1200"/>
    <path d="M120 0v630M320 0v630M520 0v630M720 0v630M920 0v630M1120 0v630"/>
  </g>
  <rect x="84" y="84" width="1032" height="462" rx="30" fill="#ffffff" fill-opacity="0.05" stroke="#ffffff" stroke-opacity="0.2"/>
  <text x="130" y="250" fill="url(#txt)" font-size="78" font-family="Outfit, Sora, sans-serif" font-weight="700">Ari Radha</text>
  <text x="130" y="315" fill="#dbe9ff" font-size="35" font-family="Outfit, Sora, sans-serif" font-weight="500">AI Builder. SaaS Founder. Automation Thinker.</text>
  <text x="130" y="382" fill="#b6c8e8" font-size="28" font-family="Outfit, Sora, sans-serif" font-weight="400">Practical AI products and automation systems built for real business outcomes.</text>
  <circle cx="1035" cy="170" r="58" fill="#71a8ff" fill-opacity="0.25"/>
  <circle cx="980" cy="220" r="72" fill="#4de2c5" fill-opacity="0.2"/>
</svg>
